<mxfile host="app.diagrams.net" modified="2024-05-29T03:42:07.468Z" agent="Mozilla/5.0 (Windows NT 10.0; Win64; x64) AppleWebKit/537.36 (KHTML, like Gecko) Chrome/125.0.0.0 Safari/537.36 Edg/125.0.0.0" version="24.4.9" etag="m51Os9INqWWicTSrV5XD" type="github">
  <diagram name="第 1 页" id="N1atIJdVatAQZaQIyx8w">
    <mxGraphModel>
      <root>
        <mxCell id="0" />
        <mxCell id="1" parent="0" />
      </root>
    </mxGraphModel>
  </diagram>
</mxfile>
